<svg xmlns="http://www.w3.org/2000/svg" xmlns:xlink="http://www.w3.org/1999/xlink" id="Layer_1" data-name="Layer 1" version="1.1" width="100" height="100"><defs id="defs4"><linearGradient id="linearGradient5231"><stop offset="0" id="stop5227" stop-color="#becccc" stop-opacity="1"/><stop id="stop5235" offset=".5" stop-color="#eee" stop-opacity="1"/><stop offset="1" id="stop5229" stop-color="#becccc" stop-opacity="1"/></linearGradient><linearGradient xlink:href="#linearGradient5231" id="linearGradient5237" gradientUnits="userSpaceOnUse" x1="27.732" y1="98.008" x2="174.288" y2="98.008"/><style id="style2"></style></defs><path d="M44.125 0a2.202 2.202 0 00-2.202 2.202v5.977a2.202 2.202 0 001.897 2.178c-.432.107-.873.176-1.301.295l.07-.02-.266.067a45.494 45.494 0 00-3.911 1.303c-.15.053-.3.105-.45.16a45.542 45.542 0 00-3.475 1.557 45.325 45.325 0 00-.79.375 45.472 45.472 0 00-2.99 1.722c-.309.18-.615.363-.919.55a45.518 45.518 0 00-2.576 1.843 45.534 45.534 0 00-1.228.917c-.71.588-1.4 1.2-2.072 1.831a45.445 45.445 0 00-1.346 1.232 45.495 45.495 0 00-1.738 1.875 45.467 45.467 0 00-1.554 1.733 2.202 2.202 0 00.29 3.137l4.647 3.765a2.202 2.202 0 003.07-.292 35.125 35.125 0 011.492-1.66c.377-.423.764-.839 1.161-1.243l.013-.013a35.169 35.169 0 011.32-1.202c.418-.383.846-.755 1.282-1.118l.01-.008a35.161 35.161 0 011.467-1.09c.442-.332.892-.652 1.35-.962a35.146 35.146 0 011.596-.954c.469-.283.945-.555 1.427-.815a35.118 35.118 0 011.636-.768c.523-.247 1.051-.481 1.585-.703a35.074 35.074 0 011.647-.582 35.14 35.14 0 011.65-.544 35.12 35.12 0 011.78-.435 35.174 35.174 0 011.636-.363 35.146 35.146 0 011.817-.256c.558-.08 1.117-.147 1.679-.2a35.109 35.109 0 011.765-.069c.585-.025 1.17-.036 1.757-.032a35.122 35.122 0 011.692.103 35.1 35.1 0 011.817.149 35.173 35.173 0 011.649.266c.597.094 1.193.203 1.784.327a35.123 35.123 0 011.695.452c.552.144 1.1.302 1.645.473l.015.006a35.124 35.124 0 011.73.652c.531.197 1.056.408 1.577.632.003 0 .005.003.008.004a35.134 35.134 0 011.568.778c.522.257 1.038.527 1.548.809a35.105 35.105 0 011.494.94c.494.307.98.627 1.458.958l.015.011a35.143 35.143 0 011.374 1.069c.46.354.912.72 1.354 1.096a35.15 35.15 0 011.262 1.204c.43.404.848.819 1.256 1.243a35.114 35.114 0 011.118 1.3c.397.457.782.922 1.155 1.399a35.089 35.089 0 01.965 1.384c.35.494.683.997 1.006 1.507a35.091 35.091 0 01.839 1.495c.295.52.575 1.046.843 1.58a35.14 35.14 0 01.714 1.643c.226.513.44 1.032.64 1.556a35.1 35.1 0 01.55 1.714c.18.552.345 1.108.498 1.669a35.144 35.144 0 01.367 1.724c.124.57.233 1.143.33 1.718a35.02 35.02 0 01.195 1.757c.067.58.117 1.164.155 1.748a35.162 35.162 0 01.017 1.767c.008.568.002 1.137-.017 1.705a35.192 35.192 0 01-.162 1.806c-.049.569-.112 1.135-.189 1.7a35.032 35.032 0 01-.331 1.727c-.109.58-.232 1.156-.37 1.73a35.109 35.109 0 01-.494 1.659 35.143 35.143 0 01-.544 1.692c-.2.52-.413 1.036-.637 1.546l-.023.06c-.22.544-.454 1.08-.701 1.613a35.13 35.13 0 01-.817 1.53c-.278.528-.57 1.047-.873 1.56a35.068 35.068 0 01-.927 1.389 35.169 35.169 0 01-1.067 1.522 35.1 35.1 0 01-1.04 1.262c-.395.485-.803.96-1.224 1.423a35.09 35.09 0 01-1.197 1.185c-.426.427-.864.842-1.312 1.247a35.172 35.172 0 01-1.34 1.088c-.46.376-.929.74-1.408 1.092a35.152 35.152 0 01-1.445.946c-.499.332-1.008.65-1.524.955l-.009.007a35.147 35.147 0 01-1.49.778c-.528.28-1.064.545-1.606.798a35.182 35.182 0 01-1.636.653c-.53.215-1.066.417-1.606.607a35.105 35.105 0 01-1.783.513c-.539.159-1.083.303-1.63.435-.004 0-.008.003-.012.004a35.096 35.096 0 01-1.806.33c-.54.1-1.083.187-1.628.261a35.186 35.186 0 01-1.847.149c-.554.046-1.11.08-1.666.1a36.27 36.27 0 01-1.798-.036 34.672 34.672 0 01-1.692-.066 35.089 35.089 0 01-1.76-.211 35.153 35.153 0 01-1.751-.245 35.128 35.128 0 01-1.707-.383 35.132 35.132 0 01-1.688-.41 35.083 35.083 0 01-1.694-.56c-.547-.178-1.09-.37-1.628-.574a35.128 35.128 0 01-1.645-.733c-.523-.23-1.039-.476-1.55-.731a35.144 35.144 0 01-1.561-.892c-.501-.284-.995-.58-1.481-.888-.005-.004-.01-.006-.016-.009a35.074 35.074 0 01-1.444-1.034c-.46-.325-.911-.662-1.355-1.009a35.075 35.075 0 01-1.395-1.219 35.15 35.15 0 01-1.198-1.09l-.013-.013a35.137 35.137 0 01-1.286-1.376c-.475-.5-.937-1.014-1.382-1.541a2.202 2.202 0 00-3.068-.29l-4.647 3.764a2.202 2.202 0 00-.322 3.098 45.352 45.352 0 002.939 3.281 45.376 45.376 0 001.77 1.639l-.074-.065a45.34 45.34 0 001.628 1.484c.599.479 1.21.941 1.832 1.389.572.447 1.153.882 1.746 1.3.027.02.054.037.081.054.567.364 1.143.714 1.725 1.052l.043.026c.013.007.025.016.039.023a45.326 45.326 0 002.06 1.235c.617.315 1.243.614 1.874.9l.06.028c.01.004.017.01.026.013a45.346 45.346 0 002.14 1.007c.668.26 1.343.504 2.023.733a45.31 45.31 0 002.242.789c.717.2 1.44.383 2.166.548.704.191 1.413.368 2.126.525l.095.017a45.34 45.34 0 002.266.337c.709.118 1.42.22 2.133.304.015 0 .03.003.045.004 1.31.126 2.625.179 3.941.191a2.2 2.2 0 00.447.039 45.525 45.525 0 003.71-.207l.036-.002c.33-.023.66-.05.989-.081l.03-.002c34.616-3.686 52.121-43.4 32.3-71.427l2.599-2.6c.86-.86.86-2.253 0-3.113L83.468 11.753a2.202 2.202 0 00-3.114-.002l-3.35 3.35c-3.806-2.165-7.892-3.727-12.154-4.72h.18a2.202 2.202 0 002.202-2.202V2.202A2.202 2.202 0 0065.031 0zm30.712 27.76a2.202 2.202 0 00-1.524.643L53.76 47.954c-3.266.428-5.86 3.144-5.86 6.517.001 3.664 3.02 6.681 6.683 6.68 3.37 0 6.081-2.589 6.513-5.85l19.557-19.557c.861-.86.861-2.256 0-3.116l-4.227-4.225a2.202 2.202 0 00-1.589-.643z" id="rect6-1" fill="#a8bbbb" fill-opacity="1" stroke="none" stroke-width="4.403" stroke-linecap="round" stroke-linejoin="round" stroke-miterlimit="4" stroke-dasharray="none" stroke-opacity="1" paint-order="stroke fill markers"/><path d="M2 39.057a2 2 0 00-2 2v2.711a2 2 0 002 2h35.27a2 2 0 002-2v-2.71a2 2 0 00-2-2zm16.28 21.711a2 2 0 00-2 2v2.71a2 2 0 002 2h18.99a2 2 0 002-2v-2.71a2 2 0 00-2-2z" id="rect6" fill="#a8bbbb" fill-opacity="1" stroke="none" stroke-width="4" stroke-linecap="round" stroke-linejoin="round" stroke-miterlimit="4" stroke-dasharray="none" stroke-opacity="1" paint-order="stroke fill markers"/></svg>