<?xml version="1.0" encoding="UTF-8" standalone="no"?>
<svg
   xmlns:dc="http://purl.org/dc/elements/1.1/"
   xmlns:cc="http://creativecommons.org/ns#"
   xmlns:rdf="http://www.w3.org/1999/02/22-rdf-syntax-ns#"
   xmlns:svg="http://www.w3.org/2000/svg"
   xmlns="http://www.w3.org/2000/svg"
   xmlns:xlink="http://www.w3.org/1999/xlink"
   xmlns:sodipodi="http://sodipodi.sourceforge.net/DTD/sodipodi-0.dtd"
   xmlns:inkscape="http://www.inkscape.org/namespaces/inkscape"
   id="Layer_1"
   data-name="Layer 1"
   viewBox="0 0 100.00001 100.00001"
   version="1.1"
   sodipodi:docname="favicon.svg"
   width="100"
   height="100"
   inkscape:version="0.92.4 (5da689c313, 2019-01-14)"
   inkscape:export-filename="E:\Personal\Dropbox\racetime.gg\icon-180x180.png"
   inkscape:export-xdpi="79.690002"
   inkscape:export-ydpi="79.690002">
  <metadata
     id="metadata257">
    <rdf:RDF>
      <cc:Work
         rdf:about="">
        <dc:format>image/svg+xml</dc:format>
        <dc:type
           rdf:resource="http://purl.org/dc/dcmitype/StillImage" />
        <dc:title></dc:title>
      </cc:Work>
    </rdf:RDF>
  </metadata>
  <sodipodi:namedview
     pagecolor="#ffffff"
     bordercolor="#666666"
     borderopacity="1"
     objecttolerance="10"
     gridtolerance="10"
     guidetolerance="10"
     inkscape:pageopacity="0"
     inkscape:pageshadow="2"
     inkscape:window-width="1560"
     inkscape:window-height="802"
     id="namedview255"
     showgrid="false"
     inkscape:zoom="3.337544"
     inkscape:cx="38.209619"
     inkscape:cy="46.558267"
     inkscape:window-x="2009"
     inkscape:window-y="66"
     inkscape:window-maximized="0"
     inkscape:current-layer="Layer_1" />
  <defs
     id="defs4">
    <linearGradient
       inkscape:collect="always"
       id="linearGradient5231">
      <stop
         style="stop-color:#becccc;stop-opacity:1;"
         offset="0"
         id="stop5227" />
      <stop
         id="stop5235"
         offset="0.5"
         style="stop-color:#eeeeee;stop-opacity:1" />
      <stop
         style="stop-color:#becccc;stop-opacity:1"
         offset="1"
         id="stop5229" />
    </linearGradient>
    <style
       id="style2">.cls-1{fill:#fff;}</style>
    <linearGradient
       inkscape:collect="always"
       xlink:href="#linearGradient5231"
       id="linearGradient5237"
       gradientUnits="userSpaceOnUse"
       x1="27.731907"
       y1="98.007797"
       x2="174.28802"
       y2="98.007797" />
  </defs>
  <path
     style="fill:#a8bbbb;fill-opacity:1;stroke:none;stroke-width:4.40343666;stroke-linecap:round;stroke-linejoin:round;stroke-miterlimit:4;stroke-dasharray:none;stroke-opacity:1;paint-order:stroke fill markers"
     d="M 44.124954,2.4292684e-4 C 42.909027,3.6402684e-4 41.923355,0.98603589 41.923233,2.2019612 v 5.9773215 c 0.0013,1.0970689 0.809946,2.0258403 1.896404,2.1780663 -0.431791,0.106222 -0.872226,0.175706 -1.300821,0.294566 l 0.07095,-0.01935 c -0.08929,0.02163 -0.177953,0.0446 -0.266615,0.06666 -0.02448,0.0061 -0.04886,0.01248 -0.07311,0.01935 -1.297996,0.370644 -2.578038,0.799113 -3.837959,1.283618 -0.150334,0.05264 -0.299627,0.10489 -0.449376,0.159109 -0.02379,0.0081 -0.04745,0.01679 -0.07094,0.02579 -1.15466,0.463153 -2.290786,0.974705 -3.403636,1.530882 -0.24287,0.112436 -0.483763,0.225176 -0.72459,0.341868 -0.02241,0.01109 -0.04464,0.02256 -0.06666,0.0344 -1.018609,0.536603 -2.015816,1.10996 -2.990813,1.722242 -0.307974,0.180352 -0.614416,0.362855 -0.918101,0.55043 -0.02175,0.01396 -0.04325,0.02829 -0.0645,0.043 -0.856891,0.571677 -1.695218,1.171164 -2.511337,1.799646 -0.392743,0.282896 -0.781807,0.571192 -1.165364,0.866497 -0.02108,0.0161 -0.04186,0.0326 -0.06235,0.04945 -0.709775,0.58889 -1.400034,1.200981 -2.072713,1.831898 -0.437304,0.384588 -0.867835,0.775011 -1.290071,1.176113 -0.01897,0.0183 -0.03761,0.03693 -0.0559,0.0559 -0.596604,0.608707 -1.175801,1.233641 -1.737294,1.8749 -0.53255,0.565098 -1.051611,1.141406 -1.554535,1.732993 -0.801113,0.941722 -0.670039,2.358279 0.290265,3.137019 l 4.646405,3.764852 c 0.932205,0.755284 2.297491,0.625257 3.070368,-0.292415 0.463645,-0.550137 0.944036,-1.085498 1.440578,-1.606137 0.0175,-0.01762 0.0347,-0.03555 0.0516,-0.05375 0.376864,-0.423127 0.764203,-0.838389 1.161065,-1.242766 0.0043,-0.0043 0.0087,-0.0086 0.0129,-0.0129 0.415125,-0.397251 0.840909,-0.784649 1.27502,-1.161063 0.01524,-0.01341 0.0303,-0.02703 0.04516,-0.04085 0.417687,-0.383003 0.845746,-0.755709 1.28147,-1.11806 0.0035,-0.003 0.0073,-0.0057 0.01079,-0.0086 0.463057,-0.36302 0.936228,-0.714255 1.416928,-1.053557 0.01666,-0.01196 0.03314,-0.02413 0.04945,-0.03655 0.442538,-0.331314 0.892596,-0.651039 1.350274,-0.961102 0.506004,-0.320808 1.019866,-0.630028 1.541634,-0.924548 0.01805,-0.0098 0.03598,-0.01982 0.05376,-0.0301 0.469206,-0.282586 0.945786,-0.554565 1.427679,-0.814894 0.519922,-0.260238 1.045985,-0.507679 1.578186,-0.74179 0.01947,-0.0084 0.03883,-0.01692 0.05805,-0.0258 0.522429,-0.247702 1.050619,-0.48147 1.584637,-0.703088 0.525585,-0.200309 1.054346,-0.388491 1.588937,-0.563331 0.01944,-0.0062 0.03879,-0.01264 0.05805,-0.01935 0.54507,-0.194876 1.095118,-0.376274 1.649141,-0.543978 0.56984,-0.154601 1.143168,-0.295739 1.720094,-0.421423 0.02012,-0.0041 0.0402,-0.0084 0.06021,-0.0129 0.542068,-0.134148 1.088393,-0.255212 1.636239,-0.363368 0.582597,-0.0969 1.167772,-0.179855 1.754496,-0.247263 0.02083,-0.0025 0.04161,-0.0054 0.06235,-0.0086 0.558328,-0.08024 1.117694,-0.146695 1.679242,-0.19996 0.567131,-0.03651 1.13468,-0.05985 1.702893,-0.0688 0.02078,2.94e-4 0.04157,2.94e-4 0.06235,0 0.585289,-0.02547 1.170789,-0.03608 1.756646,-0.03225 0.543459,0.0206 1.08576,0.05311 1.62764,0.0989 0.02148,0.0018 0.04298,0.0032 0.0645,0.0043 0.607042,0.03332 1.212373,0.08358 1.816849,0.148358 0.530507,0.0737 1.060237,0.157999 1.586787,0.255863 0.02073,0.0039 0.04151,0.0075 0.06235,0.01079 0.597394,0.09342 1.192794,0.202677 1.784599,0.326816 0.546644,0.131902 1.090105,0.276331 1.629788,0.434323 0.02141,0.0061 0.04291,0.0118 0.0645,0.01721 0.552219,0.143973 1.100302,0.302328 1.644838,0.473026 0.0052,0.0017 0.0099,0.0048 0.01505,0.0065 0.561221,0.195836 1.117941,0.403782 1.668492,0.627833 0.02066,0.0081 0.04145,0.01608 0.06235,0.02365 0.530837,0.197761 1.055386,0.408935 1.576035,0.632135 0.003,0.0012 0.0056,0.0031 0.0086,0.0043 0.509811,0.23778 1.013722,0.488398 1.511533,0.75039 0.01851,0.0096 0.03713,0.0189 0.0559,0.02795 0.522755,0.256492 1.038746,0.526297 1.548085,0.808444 0.487478,0.290267 0.967737,0.591662 1.44058,0.905199 0.01775,0.01172 0.03567,0.0232 0.05375,0.0344 0.493791,0.307422 0.97989,0.627405 1.457779,0.958951 0.0051,0.0035 0.01002,0.0073 0.01505,0.01079 0.450257,0.332643 0.892757,0.676112 1.326623,1.029905 0.01559,0.01312 0.03135,0.02603 0.0473,0.03871 0.460366,0.354464 0.912358,0.719703 1.354574,1.096559 0.414106,0.376305 0.819145,0.763241 1.214817,1.158911 0.01554,0.01529 0.03131,0.03034 0.0473,0.04516 0.428774,0.403402 0.847693,0.818318 1.255668,1.242766 0.368848,0.408715 0.727993,0.825784 1.077209,1.251368 0.01338,0.01668 0.02699,0.03317 0.04085,0.04945 0.396818,0.456206 0.781888,0.921506 1.154614,1.397575 0.319891,0.436691 0.629445,0.879853 0.928851,1.330921 0.01192,0.0181 0.0241,0.03602 0.03655,0.05375 0.348932,0.493412 0.68325,0.996502 1.006254,1.50723 0.2803,0.473637 0.550686,0.952104 0.808445,1.438428 0.0098,0.01878 0.01979,0.03742 0.0301,0.0559 0.294615,0.51947 0.57512,1.046558 0.842846,1.580335 0.241695,0.52194 0.472277,1.049344 0.688038,1.582485 0.0083,0.0202 0.01691,0.04027 0.0258,0.06021 0.226175,0.513719 0.439438,1.032719 0.640736,1.556684 0.190133,0.546335 0.368168,1.096257 0.531079,1.651288 0.0062,0.02088 0.01259,0.04167 0.01935,0.06235 0.179978,0.551904 0.344281,1.108362 0.496677,1.66849 0.130865,0.550386 0.250625,1.103757 0.35477,1.659888 0.004,0.02157 0.0083,0.04307 0.0129,0.0645 0.124221,0.569948 0.233284,1.142522 0.328967,1.717942 0.07685,0.563956 0.139886,1.12904 0.18921,1.69644 0.0019,0.0201 0.0041,0.04017 0.0065,0.06021 0.06671,0.581014 0.117174,1.164591 0.154809,1.748044 0.0194,0.567903 0.02537,1.136345 0.01721,1.705042 -2.94e-4,0.02078 -2.94e-4,0.04157 0,0.06235 0.008,0.567744 0.0019,1.136593 -0.01721,1.705041 -0.03772,0.582181 -0.08817,1.164126 -0.154809,1.743744 -0.0024,0.02075 -0.0046,0.04154 -0.0065,0.06235 -0.04906,0.568556 -0.112502,1.13525 -0.18921,1.700742 -0.09318,0.55823 -0.200214,1.112944 -0.320367,1.666339 -0.0039,0.02001 -0.0075,0.04009 -0.01079,0.06021 -0.108853,0.579148 -0.231977,1.155773 -0.369821,1.728692 -0.146224,0.537933 -0.305688,1.071514 -0.477325,1.601836 -0.0061,0.01927 -0.01173,0.03862 -0.01721,0.05805 -0.166835,0.568541 -0.34861,1.132767 -0.543979,1.69214 -0.199382,0.52019 -0.412518,1.035767 -0.636434,1.545933 -0.0081,0.01995 -0.01606,0.04003 -0.02365,0.06021 -0.219958,0.543862 -0.454022,1.080413 -0.700937,1.612587 -0.25049,0.496837 -0.511009,0.988481 -0.784794,1.47283 -0.01104,0.01919 -0.0218,0.03854 -0.03226,0.05805 -0.27743,0.527451 -0.569051,1.046168 -0.872947,1.558834 -0.287757,0.452796 -0.584156,0.898296 -0.892298,1.337371 -0.01171,0.01704 -0.02317,0.03425 -0.0344,0.05161 -0.341347,0.516676 -0.698273,1.024374 -1.066458,1.522282 -0.324465,0.411593 -0.657238,0.815996 -0.999805,1.212664 -0.01386,0.01628 -0.02748,0.03277 -0.04085,0.04945 -0.394899,0.485378 -0.80319,0.959818 -1.223416,1.423376 -0.375192,0.389125 -0.757519,0.770277 -1.150313,1.141711 -0.01597,0.0141 -0.03175,0.02844 -0.0473,0.043 -0.426287,0.427277 -0.863837,0.842318 -1.311571,1.247067 -0.422358,0.359321 -0.853308,0.710323 -1.292221,1.049256 -0.01595,0.01268 -0.03172,0.02558 -0.0473,0.03871 -0.460319,0.376355 -0.929504,0.739756 -1.408327,1.092258 -0.456196,0.314731 -0.920557,0.618867 -1.391125,0.911649 -0.01809,0.01121 -0.036,0.02268 -0.05375,0.0344 -0.499241,0.331467 -1.008872,0.649141 -1.524433,0.954652 -0.0031,0.0019 -0.0055,0.0046 -0.0086,0.0065 -0.472059,0.26039 -0.950595,0.509857 -1.434129,0.74824 -0.01878,0.0098 -0.03742,0.01979 -0.0559,0.0301 -0.528433,0.279741 -1.064115,0.545293 -1.606139,0.797693 -0.519799,0.222305 -1.046042,0.433001 -1.576035,0.629983 -0.02018,0.0076 -0.04026,0.01547 -0.06021,0.02365 -0.530155,0.215243 -1.066123,0.417251 -1.606138,0.606332 -0.568721,0.179786 -1.140833,0.34608 -1.717944,0.496677 -0.02159,0.0054 -0.04309,0.01114 -0.0645,0.01721 -0.539019,0.158284 -1.083813,0.302068 -1.629788,0.434324 -0.0044,0.0011 -0.0085,0.0032 -0.0129,0.0043 -0.578716,0.12077 -1.159701,0.226814 -1.743746,0.318218 -0.02084,0.0033 -0.04162,0.0069 -0.06235,0.01079 -0.540613,0.100288 -1.083138,0.187507 -1.627638,0.262315 -0.593538,0.06342 -1.188922,0.110936 -1.784598,0.144057 -0.02081,0.0011 -0.04159,0.0025 -0.06235,0.0043 -0.554248,0.04673 -1.109905,0.08067 -1.666342,0.101058 -0.577843,0.0022 -1.156237,-0.009 -1.732995,-0.0344 -0.02149,-0.0011 -0.04299,-0.0018 -0.0645,-0.0022 -0.563061,-0.008 -1.127459,-0.031 -1.692142,-0.06666 -0.566807,-0.05363 -1.132662,-0.120914 -1.696443,-0.202111 -0.02146,-0.0032 -0.04296,-0.0061 -0.0645,-0.0086 -0.585525,-0.06698 -1.168775,-0.148798 -1.750195,-0.245113 -0.55032,-0.109458 -1.098244,-0.231969 -1.64269,-0.36767 -0.02142,-0.0054 -0.04292,-0.01035 -0.0645,-0.01505 -0.565823,-0.122956 -1.128801,-0.259896 -1.687844,-0.410672 -0.549389,-0.16636 -1.093511,-0.346593 -1.634089,-0.53968 -0.01998,-0.0067 -0.04005,-0.01319 -0.06021,-0.01935 -0.546929,-0.177889 -1.090172,-0.369568 -1.627645,-0.574075 -0.534656,-0.222718 -1.063761,-0.458492 -1.586787,-0.707388 -0.01922,-0.0089 -0.03857,-0.01748 -0.05805,-0.0258 -0.522873,-0.230485 -1.039174,-0.475588 -1.550235,-0.731183 -0.508485,-0.27427 -1.01079,-0.561055 -1.505082,-0.860046 -0.01847,-0.01102 -0.03711,-0.02177 -0.0559,-0.03225 -0.501409,-0.283496 -0.994607,-0.580214 -1.48143,-0.887998 -0.0048,-0.0031 -0.01013,-0.0055 -0.01505,-0.0086 -0.472271,-0.320428 -0.935,-0.652426 -1.391127,-0.995504 -0.01772,-0.01317 -0.03565,-0.02608 -0.05376,-0.03871 -0.45973,-0.324966 -0.910987,-0.661719 -1.354575,-1.00841 -0.459586,-0.381628 -0.908602,-0.773705 -1.348123,-1.178264 -0.01558,-0.01384 -0.03134,-0.02746 -0.0473,-0.04085 -0.407349,-0.354062 -0.80701,-0.717651 -1.197615,-1.090107 l -0.0129,-0.0129 C 29.52464,79.062753 29.112696,78.622661 28.7129,78.172037 c -0.01688,-0.01892 -0.03408,-0.03756 -0.0516,-0.0559 -0.475682,-0.500222 -0.93712,-1.01423 -1.382526,-1.541633 -0.773313,-0.915634 -2.136916,-1.044636 -3.068218,-0.290265 l -4.646404,3.764852 c -0.945026,0.766305 -1.089459,2.153805 -0.322518,3.098316 0.916739,1.12999 1.888051,2.214295 2.909109,3.250975 0.0099,0.01013 0.01997,0.02017 0.0301,0.0301 0.575189,0.561697 1.16534,1.108056 1.769547,1.638388 l -0.07311,-0.0645 c 0.50643,0.485755 1.023956,0.95949 1.552384,1.421225 0.02463,0.02133 0.04971,0.04213 0.07525,0.06235 0.599081,0.478708 1.209379,0.941296 1.831901,1.388975 0.571757,0.446961 1.153322,0.881801 1.745895,1.300819 0.02683,0.01852 0.05407,0.03644 0.08171,0.05376 0.566444,0.363628 1.142349,0.713353 1.724393,1.051406 0.0141,0.009 0.02889,0.01682 0.043,0.0258 0.01308,0.0076 0.02562,0.01608 0.03871,0.02365 0.649934,0.412441 1.308052,0.81019 1.978107,1.189013 0.02692,0.01563 0.05415,0.03068 0.08171,0.04516 0.617193,0.315274 1.243879,0.61422 1.874902,0.900899 0.01976,0.01002 0.04043,0.01801 0.06021,0.02795 0.0088,0.004 0.01704,0.0089 0.0258,0.0129 0.676053,0.339498 1.359016,0.664434 2.051212,0.969701 0.02912,0.01281 0.05851,0.025 0.08816,0.03655 0.66827,0.260767 1.343379,0.504402 2.02326,0.73319 0.713091,0.271664 1.430675,0.527943 2.156569,0.76329 0.02849,0.0091 0.05717,0.01779 0.08601,0.0258 0.717027,0.200793 1.439138,0.383034 2.165168,0.54828 0.704713,0.191034 1.413359,0.367835 2.126467,0.524628 0.03141,0.0064 0.06295,0.01216 0.09461,0.01721 0.752598,0.131315 1.50799,0.244441 2.266224,0.337569 0.708819,0.117118 1.419292,0.219844 2.132916,0.303164 0.01504,0.001 0.03009,0.003 0.04516,0.004 1.310174,0.12657 2.625096,0.17918 3.941165,0.19136 0.147367,0.0281 0.29722,0.0411 0.447224,0.0387 1.238606,-0.0183 2.476184,-0.0872 3.708953,-0.20641 l 0.03655,-0.002 c 0.329819,-0.0235 0.659797,-0.0512 0.989055,-0.0817 0.01002,-6.6e-4 0.02007,-0.001 0.0301,-0.002 C 93.995723,96.022249 111.50109,56.308414 91.6791,28.28081 l 2.599493,-2.59949 c 0.859481,-0.859837 0.859481,-2.253529 0,-3.113366 L 83.467805,11.752774 c -0.859228,-0.860089 -2.252924,-0.861075 -3.11337,-0.0022 l -3.349883,3.349879 C 73.197956,12.936047 69.112179,11.374182 64.849937,10.381 h 0.18061 c 1.215926,-1.21e-4 2.201599,-0.985792 2.20172,-2.2017173 V 2.2019612 C 67.232146,0.98603589 66.246473,3.6402684e-4 65.030547,2.4292684e-4 Z M 74.837233,27.760382 c -0.572392,0.008 -1.119174,0.23858 -1.524432,0.642885 l -19.55317,19.551 c -3.265257,0.427494 -5.859327,3.143376 -5.859071,6.517 9.25e-4,3.663809 3.018496,6.680686 6.682565,6.68041 3.370554,2.54e-4 6.081231,-2.589474 6.512706,-5.850465 L 80.653302,35.743761 c 0.860915,-0.860082 0.860915,-2.255435 0,-3.115518 l -4.227131,-4.224976 c -0.421076,-0.420108 -0.9942,-0.651995 -1.588938,-0.642885 z"
     id="rect6-1"
     inkscape:connector-curvature="0"
     sodipodi:nodetypes="ccccccccccccccccccccccccccccccccccccccccccccccccccccccccccccccccccccccccccccccccccccccccccccccccccccccccccccccccccccccccccccccccccccccccccccccccccccccccccccccccccccccccccccccccccccccccccccccccccccccccccccccccccccccccccccccccccccccccccccccccccc" />
  <path
     style="fill:#a8bbbb;fill-opacity:1;stroke:none;stroke-width:4;stroke-linecap:round;stroke-linejoin:round;stroke-miterlimit:4;stroke-dasharray:none;stroke-opacity:1;paint-order:stroke fill markers"
     d="m 2.0000563,39.05746 c -1.10452376,1.1e-4 -1.99988957951,0.895476 -2.000000015323,2 v 2.710937 c 1.10435813e-4,1.104524 0.895476255323,1.99989 2.000000015323,2 H 37.269588 c 1.104524,-1.1e-4 1.99989,-0.895476 2,-2 V 41.05746 c -1.1e-4,-1.104524 -0.895476,-1.99989 -2,-2 z M 18.279354,60.768397 c -1.104524,1.1e-4 -1.99989,0.895476 -2,2 v 2.708985 c 1.1e-4,1.104524 0.895476,1.99989 2,2 h 18.990234 c 1.104524,-1.1e-4 1.99989,-0.895476 2,-2 v -2.708985 c -1.1e-4,-1.104524 -0.895476,-1.99989 -2,-2 z"
     id="rect6"
     inkscape:connector-curvature="0"
     sodipodi:nodetypes="cccccccccccccccccc" />
</svg>
