<?xml version="1.0" encoding="UTF-8" standalone="no"?>
<svg
   xmlns:dc="http://purl.org/dc/elements/1.1/"
   xmlns:cc="http://creativecommons.org/ns#"
   xmlns:rdf="http://www.w3.org/1999/02/22-rdf-syntax-ns#"
   xmlns:svg="http://www.w3.org/2000/svg"
   xmlns="http://www.w3.org/2000/svg"
   xmlns:sodipodi="http://sodipodi.sourceforge.net/DTD/sodipodi-0.dtd"
   xmlns:inkscape="http://www.inkscape.org/namespaces/inkscape"
   inkscape:version="1.0rc1 (09960d6, 2020-04-09)"
   height="147.57156"
   width="173.38559"
   sodipodi:docname="fingerpoint.svg"
   id="svg20"
   version="1.1"
   viewBox="0 0 173.38559 147.57156">
  <metadata
     id="metadata26">
    <rdf:RDF>
      <cc:Work
         rdf:about="">
        <dc:format>image/svg+xml</dc:format>
        <dc:type
           rdf:resource="http://purl.org/dc/dcmitype/StillImage" />
        <dc:title></dc:title>
      </cc:Work>
    </rdf:RDF>
  </metadata>
  <defs
     id="defs24" />
  <sodipodi:namedview
     inkscape:current-layer="svg20"
     inkscape:window-maximized="0"
     inkscape:window-y="23"
     inkscape:window-x="0"
     inkscape:cy="143.06779"
     inkscape:cx="119.72134"
     inkscape:zoom="2.2486095"
     fit-margin-bottom="0"
     fit-margin-right="0"
     fit-margin-left="0"
     fit-margin-top="0"
     showgrid="false"
     id="namedview22"
     inkscape:window-height="940"
     inkscape:window-width="1263"
     inkscape:pageshadow="2"
     inkscape:pageopacity="0"
     guidetolerance="10"
     gridtolerance="10"
     objecttolerance="10"
     borderopacity="1"
     bordercolor="#666666"
     pagecolor="#ffffff" />
  <g
     id="g18"
     transform="matrix(0,1.2311,-1.2311,0,1333.404,7.4715424)">
    <path
       inkscape:connector-curvature="0"
       id="path10"
       fill="#eeeeee"
       stroke-width="4.0614"
       stroke-linecap="round"
       stroke="#000000"
       d="m 89.471,1065.9 c 3.727,6.1 -0.484,10 -6.16,12.9 -8.03,4.1 -27.898,2.1 -34.7,-2 -6.243,-3.8 -9.013,-9.3 -6.041,-14.2"
       stroke-linejoin="round" />
    <path
       inkscape:connector-curvature="0"
       id="path12"
       fill="#eeeeee"
       stroke-width="4.0614"
       stroke-linecap="round"
       stroke="#000000"
       d="m -3.2128,1024.9 c -5.6068,10.6 16.858,15.2 23.302,16 7.743,1 19.2,22.2 32.629,26.2 9.102,2.7 29.326,3.8 36.494,-1.5 12.278,-9 18.478,-20.7 21.288,-35.1 0.99,-5.1 1.7,-10.9 0.95,-15.7 -3.18,-20.02 -14.946,-20.01 -19.509,-20.72 -2.727,-8.72 -12.699,-15.04 -26.068,-12.39 -0.103,-10.74 0.226,-17.36 1.112,-27.53 1.484,-17.02 -28.071,-12.05 -27.471,15.26 0.302,13.71 6.251,36.78 -1.611,54.88 -15.641,-13.2 -30.952,-18.7 -41.116,0.6 z"
       stroke-linejoin="round" />
    <path
       inkscape:connector-curvature="0"
       id="path14"
       fill="#000000"
       d="m 63.838,981.04 c 0.03,10.26 1.214,18.23 7.226,26.06 -2.51,-6.5 -3.37,-19.62 -3.177,-27.89 z"
       stroke-width="5.781" />
    <path
       inkscape:connector-curvature="0"
       id="path16"
       fill="#000000"
       d="m 93.471,992.23 -3.809,1.49 c 1.929,5.57 4.051,11.88 7.114,15.18 -1.081,-2.6 -2.077,-11.98 -3.305,-16.67 z"
       stroke-width="5.781" />
  </g>
</svg>
