<svg xmlns="http://www.w3.org/2000/svg" height="147.572" width="173.386"><path fill="#eee" stroke-width="4.9994971" stroke-linecap="round" stroke="#000" d="M21.175 117.62c-7.51 4.588-12.311-.597-15.882-7.584-5.047-9.886-2.585-34.346 2.463-42.72 4.678-7.685 11.449-11.095 17.481-7.437" stroke-linejoin="round"/><path fill="#eee" stroke-width="4.9994971" stroke-linecap="round" stroke="#000" d="M71.65 3.516C58.6-3.386 52.937 24.27 51.952 32.203c-1.231 9.533-27.33 23.637-32.255 40.17-3.324 11.205-4.678 36.103 1.847 44.928 11.08 15.115 25.484 22.748 43.211 26.207 6.28 1.22 13.42 2.093 19.329 1.17 24.646-3.915 24.634-18.4 25.508-24.018 10.735-3.357 18.516-15.633 15.253-32.092 13.222-.127 21.372.278 33.893 1.369 20.953 1.827 14.834-34.558-18.787-33.82-16.878.372-45.28 7.696-67.563-1.983C88.638 34.88 95.41 16.03 71.65 3.516z" stroke-linejoin="round"/><path d="M125.646 86.063c-12.631.036-22.443 1.494-32.083 8.895 8.002-3.09 24.154-4.148 34.336-3.91zM111.87 122.544l-1.835-4.69c-6.857 2.375-14.625 4.988-18.688 8.758 3.201-1.33 14.749-2.557 20.523-4.068z"/></svg>