<?xml version="1.0" encoding="UTF-8" standalone="no"?>
<svg
   xmlns:dc="http://purl.org/dc/elements/1.1/"
   xmlns:cc="http://creativecommons.org/ns#"
   xmlns:rdf="http://www.w3.org/1999/02/22-rdf-syntax-ns#"
   xmlns:svg="http://www.w3.org/2000/svg"
   xmlns="http://www.w3.org/2000/svg"
   xmlns:xlink="http://www.w3.org/1999/xlink"
   xmlns:sodipodi="http://sodipodi.sourceforge.net/DTD/sodipodi-0.dtd"
   xmlns:inkscape="http://www.inkscape.org/namespaces/inkscape"
   id="Layer_1"
   data-name="Layer 1"
   viewBox="0 0 216.83402 216.83402"
   version="1.1"
   sodipodi:docname="logo-shiny.svg"
   width="216.83401"
   height="216.83401"
   inkscape:version="0.92.4 (5da689c313, 2019-01-14)">
  <metadata
     id="metadata257">
    <rdf:RDF>
      <cc:Work
         rdf:about="">
        <dc:format>image/svg+xml</dc:format>
        <dc:type
           rdf:resource="http://purl.org/dc/dcmitype/StillImage" />
        <dc:title></dc:title>
      </cc:Work>
    </rdf:RDF>
  </metadata>
  <sodipodi:namedview
     pagecolor="#ffffff"
     bordercolor="#666666"
     borderopacity="1"
     objecttolerance="10"
     gridtolerance="10"
     guidetolerance="10"
     inkscape:pageopacity="0"
     inkscape:pageshadow="2"
     inkscape:window-width="1560"
     inkscape:window-height="802"
     id="namedview255"
     showgrid="false"
     inkscape:zoom="1.668772"
     inkscape:cx="93.535663"
     inkscape:cy="119.45423"
     inkscape:window-x="1947"
     inkscape:window-y="51"
     inkscape:window-maximized="0"
     inkscape:current-layer="Layer_1" />
  <defs
     id="defs4">
    <linearGradient
       inkscape:collect="always"
       id="linearGradient5245">
      <stop
         style="stop-color:#36393f;stop-opacity:1"
         offset="0"
         id="stop5241" />
      <stop
         style="stop-color:#25272c;stop-opacity:1"
         offset="1"
         id="stop5243" />
    </linearGradient>
    <linearGradient
       inkscape:collect="always"
       id="linearGradient5231">
      <stop
         style="stop-color:#becccc;stop-opacity:1;"
         offset="0"
         id="stop5227" />
      <stop
         id="stop5235"
         offset="0.5"
         style="stop-color:#eeeeee;stop-opacity:1" />
      <stop
         style="stop-color:#becccc;stop-opacity:1"
         offset="1"
         id="stop5229" />
    </linearGradient>
    <style
       id="style2">.cls-1{fill:#fff;}</style>
    <linearGradient
       inkscape:collect="always"
       xlink:href="#linearGradient5231"
       id="linearGradient5233"
       x1="27.731907"
       y1="98.007797"
       x2="174.28802"
       y2="98.007797"
       gradientUnits="userSpaceOnUse" />
    <linearGradient
       inkscape:collect="always"
       xlink:href="#linearGradient5231"
       id="linearGradient5237"
       gradientUnits="userSpaceOnUse"
       x1="27.731907"
       y1="98.007797"
       x2="174.28802"
       y2="98.007797" />
    <linearGradient
       inkscape:collect="always"
       xlink:href="#linearGradient5245"
       id="linearGradient5247"
       x1="-198.94868"
       y1="76.910765"
       x2="-47.939438"
       y2="76.910765"
       gradientUnits="userSpaceOnUse"
       gradientTransform="matrix(1.4358988,0,0,1.1065643,285.67017,-193.5237)" />
  </defs>
  <rect
     style="fill:url(#linearGradient5247);fill-opacity:1;stroke:none;stroke-width:25.21043015;stroke-miterlimit:4;stroke-dasharray:none;stroke-opacity:1;paint-order:stroke fill markers"
     id="rect5239"
     width="216.83401"
     height="216.83401"
     x="1.3276815e-14"
     y="-216.83401"
     transform="rotate(90)" />
  <rect
     style="fill:#090700;fill-opacity:1;stroke:none;stroke-width:20;stroke-miterlimit:4;stroke-dasharray:none;stroke-opacity:1;paint-order:stroke fill markers"
     id="rect4767"
     width="407.62711"
     height="351.69492"
     x="-465.21216"
     y="278.82669" />
  <g
     id="g4893"
     style="fill:url(#linearGradient5233);fill-opacity:1"
     transform="matrix(0,-1,1.0000023,0,10.408988,209.42697)">
    <path
       style="fill:url(#linearGradient5237);fill-opacity:1;stroke-width:1"
       d="m 174.28802,88.568364 h -5.42968 v 2.718744 h -3.34766 a 39.34009,39.33991 0 0 0 -0.82617,-3.64257 39.34009,39.33991 0 0 0 -0.0566,-0.230468 39.34009,39.33991 0 0 0 -1.10938,-3.318351 39.34009,39.33991 0 0 0 -0.1582,-0.445312 39.34009,39.33991 0 0 0 -1.32227,-2.9414 39.34009,39.33991 0 0 0 -0.32226,-0.681638 39.34009,39.33991 0 0 0 -1.49024,-2.585932 39.34009,39.33991 0 0 0 -0.50781,-0.845701 39.34009,39.33991 0 0 0 -1.55664,-2.169917 39.34009,39.33991 0 0 0 -0.78711,-1.058592 39.34009,39.33991 0 0 0 -1.58203,-1.792965 39.34009,39.33991 0 0 0 -1.06055,-1.162106 39.34009,39.33991 0 0 0 -1.62109,-1.50195 39.34009,39.33991 0 0 0 -1.55273,-1.392574 l -3.41993,4.220693 a 33.910078,33.909922 0 0 1 1.55079,1.390622 33.910078,33.909922 0 0 1 1.21093,1.132809 33.910078,33.909922 0 0 1 1.16407,1.275388 33.910078,33.909922 0 0 1 1.08789,1.246091 33.910078,33.909922 0 0 1 1.05273,1.412106 33.910078,33.909922 0 0 1 0.94141,1.322263 33.910078,33.909922 0 0 1 0.91211,1.521481 33.910078,33.909922 0 0 1 0.80078,1.404293 33.910078,33.909922 0 0 1 0.73047,1.552732 33.910078,33.909922 0 0 1 0.6875,1.548824 33.910078,33.909922 0 0 1 0.55664,1.570309 33.910078,33.909922 0 0 1 0.53515,1.624996 33.910078,33.909922 0 0 1 0.41211,1.68359 33.910078,33.909922 0 0 1 0.35547,1.601558 33.910078,33.909922 0 0 1 0.24414,1.730465 33.910078,33.909922 0 0 1 0.19531,1.642575 33.910078,33.909922 0 0 1 0.0684,1.68359 33.910078,33.909922 0 0 1 0.0312,1.716793 33.910078,33.909922 0 0 1 -0.0977,1.61328 33.910078,33.909922 0 0 1 -0.14453,1.77734 33.910078,33.909922 0 0 1 -0.25391,1.57031 33.910078,33.909922 0 0 1 -0.32422,1.76562 33.910078,33.909922 0 0 1 -0.42383,1.58984 33.910078,33.909922 0 0 1 -0.47461,1.64843 33.910078,33.909922 0 0 1 -0.61328,1.625 33.910078,33.909922 0 0 1 -0.61328,1.53125 33.910078,33.909922 0 0 1 -0.75,1.51561 33.910078,33.909922 0 0 1 -0.79492,1.52149 33.910078,33.909922 0 0 1 -0.89063,1.41796 33.910078,33.909922 0 0 1 -0.93554,1.42187 33.910078,33.909922 0 0 1 -1.0293,1.32812 33.910078,33.909922 0 0 1 -1.08203,1.33399 33.910078,33.909922 0 0 1 -1.13672,1.19336 33.910078,33.909922 0 0 1 -1.22852,1.24022 33.910078,33.909922 0 0 1 -1.2246,1.05469 33.910078,33.909922 0 0 1 -1.3711,1.13086 33.910078,33.909922 0 0 1 -1.31445,0.91797 33.910078,33.909922 0 0 1 -1.48438,0.99217 33.910078,33.909922 0 0 1 -1.41015,0.79102 33.910078,33.909922 0 0 1 -1.55274,0.82813 33.910078,33.909922 0 0 1 -1.55664,0.67578 33.910078,33.909922 0 0 1 -1.54883,0.63672 33.910078,33.909922 0 0 1 -1.60742,0.51561 33.910078,33.909922 0 0 1 -1.65039,0.49219 33.910078,33.909922 0 0 1 -1.625,0.3457 33.910078,33.909922 0 0 1 -1.68164,0.32227 33.910078,33.909922 0 0 1 -1.67383,0.1875 33.910078,33.909922 0 0 1 -1.70508,0.15234 33.910078,33.909922 0 0 1 -1.6875,0.0176 33.910078,33.909922 0 0 1 -1.6875,-0.0176 33.910078,33.909922 0 0 1 -1.70117,-0.15234 33.910078,33.909922 0 0 1 -1.68164,-0.1875 33.910078,33.909922 0 0 1 -1.63086,-0.3125 33.910078,33.909922 0 0 1 -1.69336,-0.36328 33.910078,33.909922 0 0 1 -1.57812,-0.46875 33.910078,33.909922 0 0 1 -1.6582,-0.5332 33.910078,33.909922 0 0 1 -1.52344,-0.625 33.910078,33.909922 0 0 1 -1.59961,-0.69531 33.910078,33.909922 0 0 1 -1.4375,-0.76758 33.910078,33.909922 0 0 1 -1.53906,-0.86133 33.910078,33.909922 0 0 1 -1.31055,-0.875 33.910078,33.909922 0 0 1 -1.49805,-1.04881 33.910078,33.909922 0 0 1 -1.1914,-0.98243 33.910078,33.909922 0 0 1 -1.39063,-1.19531 33.910078,33.909922 0 0 1 -1.12891,-1.13866 33.910078,33.909922 0 0 1 -1.2207,-1.2832 33.910078,33.909922 0 0 1 -1.03515,-1.27539 33.910078,33.909922 0 0 1 -1.072271,-1.38282 33.910078,33.909922 0 0 1 -0.898437,-1.36913 33.910078,33.909922 0 0 1 -0.927735,-1.47851 33.910078,33.909922 0 0 1 -0.751953,-1.4375 33.910078,33.909922 0 0 1 -0.789062,-1.58984 33.910078,33.909922 0 0 1 -0.615235,-1.53906 33.910078,33.909922 0 0 1 -0.601562,-1.5957 33.910078,33.909922 0 0 1 -0.482422,-1.67187 33.910078,33.909922 0 0 1 -0.423828,-1.58398 33.910078,33.909922 0 0 1 -0.320313,-1.74609 33.910078,33.909922 0 0 1 -0.255859,-1.58789 33.910078,33.909922 0 0 1 -0.144531,-1.76562 33.910078,33.909922 0 0 1 -0.09766,-1.624993 33.910078,33.909922 0 0 1 0.0332,-1.718746 33.910078,33.909922 0 0 1 0.06641,-1.675777 33.910078,33.909922 0 0 1 0.197265,-1.658201 33.910078,33.909922 0 0 1 0.240235,-1.712886 33.910078,33.909922 0 0 1 0.363281,-1.626949 33.910078,33.909922 0 0 1 0.404297,-1.658199 33.910078,33.909922 0 0 1 0.529297,-1.607418 33.910078,33.909922 0 0 1 0.566406,-1.603513 33.910078,33.909922 0 0 1 0.693359,-1.556637 33.910078,33.909922 0 0 1 0.712891,-1.515622 33.910078,33.909922 0 0 1 0.849609,-1.488277 33.910078,33.909922 0 0 1 0.865235,-1.445309 33.910078,33.909922 0 0 1 0.996093,-1.396482 33.910078,33.909922 0 0 1 0.98829,-1.328122 33.910078,33.909922 0 0 1 1.16015,-1.328122 33.910078,33.909922 0 0 1 1.0957,-1.201169 33.910078,33.909922 0 0 1 1.28711,-1.203122 33.910078,33.909922 0 0 1 1.48829,-1.333981 l -3.41993,-4.220693 a 39.20009,39.19991 0 0 0 -2.810547,2.513666 39.20009,39.19991 0 0 0 -1.416016,1.529293 39.20009,39.19991 0 0 0 -1.228515,1.341794 39.20009,39.19991 0 0 0 -1.201172,1.583981 39.20009,39.19991 0 0 0 -1.171875,1.572262 39.20009,39.19991 0 0 0 -0.951172,1.560542 39.20009,39.19991 0 0 0 -1.070313,1.781246 39.20009,39.19991 0 0 0 -0.814453,1.693356 39.20009,39.19991 0 0 0 -0.873047,1.847652 39.20009,39.19991 0 0 0 -0.634765,1.748043 39.20009,39.19991 0 0 0 -0.685547,1.939449 39.20009,39.19991 0 0 0 -0.474609,1.871089 39.20009,39.19991 0 0 0 -0.472657,1.917964 39.20009,39.19991 0 0 0 -0.291015,1.958981 39.20009,39.19991 0 0 0 -0.273438,1.925776 39.20009,39.19991 0 0 0 -0.18164,3.765616 h -0.01953 a 39.34009,39.33991 0 0 0 0.183594,3.257808 39.34009,39.33991 0 0 0 0.07227,0.88671 39.34009,39.33991 0 0 0 63.152337,26.98041 l 3.51758,3.51952 9.82422,-9.82029 -4.05078,-4.05272 a 39.34009,39.33991 0 0 0 5.34766,-13.99216 h 3.36328 v 2.71094 H 174.288 Z M 149.07123,116.49604 130.8681,98.290998 a 4.0700095,4.0699908 0 0 0 0.01,-0.222656 4.0700095,4.0699908 0 0 0 -4.07031,-4.070302 4.0700095,4.0699908 0 0 0 -4.07032,4.070302 4.0700095,4.0699908 0 0 0 4.07032,4.070308 4.0700095,4.0699908 0 0 0 0.21875,-0.01 l 18.20703,18.20699 z M 139.01849,39.738399 h -2.71093 v 35.269449 h 2.71093 z m -21.71093,16.279259 h -2.70899 v 18.99019 h 2.70899 z M 98.879821,38.527464 a 1.9122871,1.9122783 0 0 0 -3.371094,-1.240232 l -51.761723,60.650252 0.07813,0.06641 -0.07813,0.06445 51.761723,60.660016 a 1.9124808,1.912472 0 0 0 2.919922,-2.47069 L 48.709904,98.007796 98.428649,39.75793 a 1.9122871,1.9122783 0 0 0 0.451172,-1.230466 z m -5.587891,121.816126 -3.765625,-4.46288 -4.46289,3.76562 3.765625,4.46288 z m -0.01367,-124.677448 -4.46289,-3.765616 -3.765625,4.46288 4.46289,3.76757 z m -7.789062,9.249979 -4.462891,-3.765617 -3.765625,4.462881 4.462891,3.767569 z m -0.0098,106.175539 -3.767578,-4.46288 -4.460937,3.76757 3.765625,4.46288 z m -0.58789,17.32418 -3.796875,-4.43944 -4.4375,3.79686 3.794921,4.43749 z m -0.35739,-132.341496 -4.460938,-3.767569 -3.769531,4.46288 4.462891,3.76757 z m -0.0039,123.866906 -3.767579,-4.46288 -4.46289,3.76757 3.769531,4.46288 z m -0.980469,-132.480167 -4.460938,-3.76757 -3.767578,4.460928 4.460938,3.76757 z m -6.15625,114.030987 -3.765629,-4.46288 -4.46289,3.76562 3.76563,4.46288 z m -0.0039,-86.976361 -4.462892,-3.76757 -3.76562,4.464833 4.46289,3.765616 z m -0.957031,95.824001 -3.763671,-4.46484 -4.46484,3.76367 3.76367,4.46483 z m -0.0059,-104.669684 -4.464842,-3.763663 -3.76367,4.464833 4.46484,3.763663 z m -0.65625,113.642314 -3.771482,-4.47264 -4.46289,3.76757 3.77148,4.47069 z m -0.0098,-122.601278 -4.464846,-3.763664 -3.77148,4.470693 4.46484,3.765617 z m -0.728515,131.253608 -3.773441,-4.46874 -4.46289,3.76757 3.77539,4.46874 z m -0.0039,-139.915698 -4.462894,-3.767569 -3.77343,4.470693 4.46289,3.765616 z m -0.984374,-8.613261 -4.46289,-3.76757 -3.77344,4.470694 4.46289,3.767569 z m 0,157.132449 -3.77344,-4.47069 -4.46289,3.76757 3.77344,4.47069 z m -4.74805,-44.67763 -3.77343,-4.47069 -4.4629,3.76756 3.77344,4.4707 z m -0.02734,-67.77914 -4.46289,-3.76757 -3.77344,4.470693 4.46289,3.767569 z m -0.9375,-8.832011 -4.46485,-3.763663 -3.76367,4.464832 4.46485,3.763664 z m -0.02344,85.460741 -3.76367,-4.46484 -4.4668,3.76367 3.76563,4.46483 z m -0.64453,8.96092 -3.76562,-4.46289 -4.4629,3.76562 3.76563,4.46288 z m -0.02148,-103.394298 -4.46485,-3.767569 -3.76562,4.464834 4.46289,3.765616 z m -0.73047,-8.652323 -4.46485,-3.763663 -3.76562,4.464833 4.46484,3.763663 z m -0.0078,120.706751 -3.76562,-4.46483 -4.46484,3.76366 3.76562,4.46483 z m -0.64843,-129.671574 -4.47071,-3.771476 -3.76562,4.46288 4.4707,3.77343 z m -0.01758,138.630544 -3.76758,-4.46288 -4.46289,3.76561 3.76758,4.46288 z m -0.73047,-147.29654 -4.46289,-3.765616 -3.76758,4.46288 4.46289,3.765617 z m 0,155.96253 -3.76758,-4.46483 -4.46289,3.76757 3.76758,4.46288 z m -0.95508,-164.562119 -4.46679,-3.7636636 -3.76954,4.4726456 4.46485,3.763664 z m -0.0059,173.167569 -3.77148,-4.47265 -4.46485,3.76367 3.77149,4.47264 z m -4.99414,-128.679391 -4.46094,-3.767569 -3.76757,4.462881 4.46093,3.767569 z m -0.02148,84.175581 -3.76758,-4.46092 -4.46094,3.76757 3.76758,4.46092 z m -0.71875,8.66991 -3.76172,-4.46484 -4.47461,3.76757 3.76367,4.46679 z m -0.002,-101.497815 -4.47265,-3.769522 -3.76367,4.466787 4.47461,3.767569 z m -0.66601,-8.970682 -4.47266,-3.771475 -3.76367,4.464833 4.47266,3.771476 z m -0.01563,119.435267 -3.76367,-4.46483 -4.46484,3.76366 3.76367,4.46483 z m -0.70898,-128.095403 -4.46484,-3.763663 -3.76563,4.464833 4.4668,3.763664 z m -0.02734,136.747733 -3.76368,-4.46679 -4.46679,3.76561 3.76562,4.46484 z m -0.64063,-145.704744 -4.46289,-3.765616 -3.76562,4.46288 4.46289,3.765616 z m -0.01953,154.671514 -3.76563,-4.46483 -4.46484,3.76562 3.76563,4.46483 z m -6.67774,-27.22455 -3.76757,-4.46288 -4.46094,3.76758 3.76758,4.46288 z m -0.002,-100.22437 -4.46289,-3.767569 -3.76758,4.46288 4.46289,3.76757 z m -0.72265,108.88451 -3.76563,-4.46483 -4.46289,3.76367 3.76367,4.46483 z m -0.01368,-117.542693 -4.46484,-3.763664 -3.76367,4.464834 4.46484,3.763663 z m -0.65625,126.509473 -3.76953,-4.4746 -4.46484,3.76367 3.76953,4.4746 z m -0.02148,-135.478203 -4.45899,-3.769522 -3.77148,4.46874 4.46094,3.771475 z m -4.61914,62.210794 -12.83008,-14.951136 a 1.912481,1.9124722 0 0 0 -2.91992,2.470697 l 12.75,14.929653 z m 0,11.048799 -3,-2.43944 -12.79102,14.99996 a 1.9100044,1.9099956 0 1 0 2.91993,2.45898 z m -3.46875,52.60731 -3.76758,-4.46093 -4.46094,3.76757 3.76758,4.46093 z m -0.01172,-116.265363 -4.46289,-3.765616 -3.76563,4.460928 4.46094,3.767569 z"
       id="rect6"
       inkscape:connector-curvature="0" />
  </g>
</svg>
