<svg xmlns="http://www.w3.org/2000/svg" xmlns:xlink="http://www.w3.org/1999/xlink" id="Layer_1" data-name="Layer 1" version="1.1" width="180.695" height="146.549"><defs id="defs4"><linearGradient id="linearGradient5231"><stop offset="0" id="stop5227" stop-color="#becccc" stop-opacity="1"/><stop id="stop5235" offset=".5" stop-color="#eee" stop-opacity="1"/><stop offset="1" id="stop5229" stop-color="#becccc" stop-opacity="1"/></linearGradient><linearGradient xlink:href="#linearGradient5231" id="linearGradient5233" x1="27.732" y1="98.008" x2="174.288" y2="98.008" gradientUnits="userSpaceOnUse"/><style id="style2"></style></defs><path id="rect4767" fill="#090700" fill-opacity="1" stroke="none" stroke-width="20" stroke-miterlimit="4" stroke-dasharray="none" stroke-opacity="1" paint-order="stroke fill markers" d="M-465.212 208.542h407.627v351.695h-407.627z"/><g id="g4893" transform="rotate(-90 83.314 90.974)" fill="url(#linearGradient5233)" fill-opacity="1"><path d="M174.288 88.568h-5.43v2.72h-3.347a39.34 39.34 0 00-.826-3.643 39.34 39.34 0 00-.057-.23 39.34 39.34 0 00-1.11-3.32 39.34 39.34 0 00-.158-.445 39.34 39.34 0 00-1.322-2.941 39.34 39.34 0 00-.322-.682 39.34 39.34 0 00-1.49-2.586 39.34 39.34 0 00-.508-.845 39.34 39.34 0 00-1.557-2.17 39.34 39.34 0 00-.787-1.059 39.34 39.34 0 00-1.582-1.793 39.34 39.34 0 00-1.06-1.162 39.34 39.34 0 00-1.622-1.502 39.34 39.34 0 00-1.552-1.392l-3.42 4.22a33.91 33.91 0 011.55 1.39 33.91 33.91 0 011.211 1.134 33.91 33.91 0 011.164 1.275 33.91 33.91 0 011.088 1.246 33.91 33.91 0 011.053 1.412 33.91 33.91 0 01.941 1.323 33.91 33.91 0 01.913 1.521 33.91 33.91 0 01.8 1.404 33.91 33.91 0 01.73 1.553 33.91 33.91 0 01.688 1.549 33.91 33.91 0 01.557 1.57 33.91 33.91 0 01.535 1.625 33.91 33.91 0 01.412 1.684 33.91 33.91 0 01.356 1.601 33.91 33.91 0 01.244 1.73 33.91 33.91 0 01.195 1.643 33.91 33.91 0 01.069 1.684 33.91 33.91 0 01.03 1.717 33.91 33.91 0 01-.097 1.613 33.91 33.91 0 01-.144 1.777 33.91 33.91 0 01-.254 1.57 33.91 33.91 0 01-.325 1.766 33.91 33.91 0 01-.423 1.59 33.91 33.91 0 01-.475 1.649 33.91 33.91 0 01-.613 1.625 33.91 33.91 0 01-.614 1.53 33.91 33.91 0 01-.75 1.516 33.91 33.91 0 01-.795 1.522 33.91 33.91 0 01-.89 1.418 33.91 33.91 0 01-.936 1.422 33.91 33.91 0 01-1.029 1.328 33.91 33.91 0 01-1.082 1.334 33.91 33.91 0 01-1.137 1.193 33.91 33.91 0 01-1.228 1.24 33.91 33.91 0 01-1.225 1.055 33.91 33.91 0 01-1.371 1.131 33.91 33.91 0 01-1.314.918 33.91 33.91 0 01-1.485.992 33.91 33.91 0 01-1.41.791 33.91 33.91 0 01-1.553.828 33.91 33.91 0 01-1.556.676 33.91 33.91 0 01-1.55.637 33.91 33.91 0 01-1.607.515 33.91 33.91 0 01-1.65.493 33.91 33.91 0 01-1.625.345 33.91 33.91 0 01-1.682.323 33.91 33.91 0 01-1.673.187 33.91 33.91 0 01-1.705.152 33.91 33.91 0 01-1.688.018 33.91 33.91 0 01-1.687-.018 33.91 33.91 0 01-1.702-.152 33.91 33.91 0 01-1.681-.187 33.91 33.91 0 01-1.631-.313 33.91 33.91 0 01-1.694-.363 33.91 33.91 0 01-1.578-.469 33.91 33.91 0 01-1.658-.533 33.91 33.91 0 01-1.523-.625 33.91 33.91 0 01-1.6-.695 33.91 33.91 0 01-1.437-.768 33.91 33.91 0 01-1.54-.861 33.91 33.91 0 01-1.31-.875 33.91 33.91 0 01-1.498-1.05 33.91 33.91 0 01-1.191-.982 33.91 33.91 0 01-1.391-1.195 33.91 33.91 0 01-1.129-1.139 33.91 33.91 0 01-1.22-1.283 33.91 33.91 0 01-1.036-1.275 33.91 33.91 0 01-1.072-1.383 33.91 33.91 0 01-.899-1.37 33.91 33.91 0 01-.927-1.478 33.91 33.91 0 01-.752-1.437 33.91 33.91 0 01-.79-1.59 33.91 33.91 0 01-.615-1.539 33.91 33.91 0 01-.601-1.596 33.91 33.91 0 01-.483-1.672 33.91 33.91 0 01-.423-1.584 33.91 33.91 0 01-.32-1.746 33.91 33.91 0 01-.257-1.588 33.91 33.91 0 01-.144-1.765 33.91 33.91 0 01-.098-1.625 33.91 33.91 0 01.033-1.719 33.91 33.91 0 01.067-1.676 33.91 33.91 0 01.197-1.658 33.91 33.91 0 01.24-1.713 33.91 33.91 0 01.364-1.627 33.91 33.91 0 01.404-1.658 33.91 33.91 0 01.53-1.607 33.91 33.91 0 01.566-1.604 33.91 33.91 0 01.693-1.556 33.91 33.91 0 01.713-1.516 33.91 33.91 0 01.85-1.488 33.91 33.91 0 01.865-1.446 33.91 33.91 0 01.996-1.396 33.91 33.91 0 01.988-1.328 33.91 33.91 0 011.16-1.328 33.91 33.91 0 011.096-1.202 33.91 33.91 0 011.287-1.203 33.91 33.91 0 011.488-1.334l-3.42-4.22a39.2 39.2 0 00-2.81 2.513 39.2 39.2 0 00-1.416 1.53 39.2 39.2 0 00-1.229 1.341 39.2 39.2 0 00-1.2 1.584 39.2 39.2 0 00-1.173 1.573 39.2 39.2 0 00-.95 1.56 39.2 39.2 0 00-1.071 1.781 39.2 39.2 0 00-.815 1.694 39.2 39.2 0 00-.873 1.847 39.2 39.2 0 00-.634 1.748 39.2 39.2 0 00-.686 1.94 39.2 39.2 0 00-.475 1.871 39.2 39.2 0 00-.472 1.918 39.2 39.2 0 00-.291 1.959 39.2 39.2 0 00-.274 1.926 39.2 39.2 0 00-.181 3.765h-.02a39.34 39.34 0 00.184 3.258 39.34 39.34 0 00.072.887 39.34 39.34 0 0063.152 26.98l3.518 3.52 9.824-9.82-4.05-4.053a39.34 39.34 0 005.347-13.992h3.363v2.71h5.43zm-25.217 27.928l-18.203-18.205a4.07 4.07 0 00.01-.223 4.07 4.07 0 00-4.07-4.07 4.07 4.07 0 00-4.07 4.07 4.07 4.07 0 004.07 4.07 4.07 4.07 0 00.219-.01l18.207 18.208zm-10.053-76.758h-2.71v35.27h2.71zm-21.71 16.28h-2.71v18.99h2.71zM98.88 38.528a1.912 1.912 0 00-3.371-1.24l-51.762 60.65.078.066-.078.064 51.762 60.66a1.912 1.912 0 002.92-2.47l-49.72-58.25 49.72-58.25a1.912 1.912 0 00.45-1.23zm-5.588 121.816l-3.766-4.463-4.463 3.765 3.766 4.463zm-.014-124.678l-4.463-3.765-3.765 4.462 4.463 3.768zm-7.789 9.25l-4.463-3.765-3.765 4.462 4.463 3.768zm-.01 106.176l-3.767-4.463-4.461 3.767 3.766 4.463zm-.587 17.324l-3.797-4.44-4.438 3.797 3.795 4.438zm-.358-132.342l-4.46-3.767-3.77 4.463 4.463 3.767zm-.004 123.867l-3.767-4.463-4.463 3.768 3.77 4.463zm-.98-132.48l-4.461-3.767-3.768 4.46 4.461 3.768zm-6.157 114.031l-3.765-4.463-4.463 3.766 3.766 4.463zm-.003-86.976l-4.463-3.768-3.766 4.465 4.463 3.766zm-.957 95.824l-3.764-4.465-4.465 3.764 3.764 4.464zm-.006-104.67l-4.465-3.764-3.764 4.465 4.465 3.764zm-.657 113.642L72 154.84l-4.463 3.767 3.772 4.471zm-.01-122.6l-4.464-3.765-3.772 4.471 4.465 3.766zm-.728 131.253l-3.773-4.47-4.463 3.769 3.775 4.468zm-.004-139.916l-4.463-3.768-3.773 4.471 4.463 3.766zm-.984-8.613l-4.463-3.768-3.774 4.47 4.463 3.768zm0 157.132l-3.774-4.47-4.463 3.767 3.774 4.47zm-4.748-44.677l-3.774-4.471-4.463 3.767 3.774 4.471zm-.028-67.78l-4.462-3.767-3.774 4.47 4.463 3.768zm-.937-8.832l-4.465-3.763-3.764 4.465 4.465 3.763zm-.024 85.461l-3.763-4.465-4.467 3.764 3.766 4.465zm-.644 8.961l-3.766-4.463-4.463 3.766 3.766 4.463zm-.022-103.394l-4.464-3.768-3.766 4.465 4.463 3.766zm-.73-8.653l-4.465-3.763-3.765 4.465 4.464 3.763zm-.008 120.707l-3.765-4.465-4.465 3.764 3.765 4.465zM66.255 28.69l-4.47-3.772-3.767 4.463 4.471 3.773zm-.018 138.63l-3.767-4.463-4.463 3.766 3.767 4.463zm-.73-147.296l-4.463-3.766-3.768 4.463 4.463 3.765zm0 155.962l-3.768-4.465-4.463 3.768 3.768 4.463zm-.955-164.562L60.085 7.66l-3.77 4.473 4.465 3.764zm-.006 173.168l-3.772-4.473-4.465 3.764 3.772 4.472zm-4.994-128.68l-4.461-3.767-3.768 4.463 4.461 3.767zm-.022 84.176l-3.767-4.461-4.461 3.767 3.767 4.461zm-.719 8.67l-3.761-4.465-4.475 3.767 3.764 4.467zM58.81 47.26l-4.472-3.77-3.764 4.467 4.475 3.768zm-.666-8.97l-4.472-3.772-3.764 4.465 4.473 3.771zm-.015 119.434l-3.764-4.464-4.465 3.763 3.764 4.465zm-.71-128.095l-4.464-3.764-3.766 4.465 4.467 3.764zm-.027 136.748l-3.763-4.467-4.467 3.766 3.766 4.464zm-.64-145.705l-4.463-3.766-3.766 4.463 4.463 3.766zm-.02 154.672l-3.765-4.465-4.465 3.765 3.765 4.465zm-6.677-27.225l-3.768-4.463-4.461 3.768 3.768 4.463zm-.002-100.224l-4.463-3.768-3.768 4.463 4.463 3.768zm-.723 108.884l-3.766-4.465-4.463 3.764 3.764 4.465zm-.014-117.543l-4.465-3.763-3.763 4.465 4.465 3.763zm-.656 126.51l-3.77-4.475-4.464 3.764 3.77 4.475zm-.022-135.478l-4.459-3.77-3.771 4.469 4.46 3.771zm-4.619 62.21l-12.83-14.95a1.912 1.912 0 00-2.92 2.47l12.75 14.93zm0 11.05l-3-2.44-12.79 15a1.91 1.91 0 102.92 2.459zm-3.468 52.607l-3.768-4.461-4.46 3.767 3.767 4.461zm-.012-116.266l-4.463-3.765-3.766 4.46 4.461 3.768z" id="rect6" fill="url(#linearGradient5233)" fill-opacity="1" stroke-width="1"/></g></svg>