<?xml version="1.0" encoding="UTF-8" standalone="no"?>
<svg
   xmlns:dc="http://purl.org/dc/elements/1.1/"
   xmlns:cc="http://creativecommons.org/ns#"
   xmlns:rdf="http://www.w3.org/1999/02/22-rdf-syntax-ns#"
   xmlns:svg="http://www.w3.org/2000/svg"
   xmlns="http://www.w3.org/2000/svg"
   xmlns:sodipodi="http://sodipodi.sourceforge.net/DTD/sodipodi-0.dtd"
   xmlns:inkscape="http://www.inkscape.org/namespaces/inkscape"
   id="Layer_1"
   viewBox="0 0 200 200"
   version="1.1"
   sodipodi:docname="discord.svg"
   width="200"
   height="200"
   inkscape:version="0.92.4 (5da689c313, 2019-01-14)">
  <metadata
     id="metadata13">
    <rdf:RDF>
      <cc:Work
         rdf:about="">
        <dc:format>image/svg+xml</dc:format>
        <dc:type
           rdf:resource="http://purl.org/dc/dcmitype/StillImage" />
        <dc:title></dc:title>
      </cc:Work>
    </rdf:RDF>
  </metadata>
  <defs
     id="defs11" />
  <sodipodi:namedview
     pagecolor="#ffffff"
     bordercolor="#666666"
     borderopacity="1"
     objecttolerance="10"
     gridtolerance="10"
     guidetolerance="10"
     inkscape:pageopacity="0"
     inkscape:pageshadow="2"
     inkscape:window-width="1920"
     inkscape:window-height="1057"
     id="namedview9"
     showgrid="false"
     inkscape:zoom="0.98333333"
     inkscape:cx="-4.1101695"
     inkscape:cy="120"
     inkscape:window-x="-8"
     inkscape:window-y="-8"
     inkscape:window-maximized="1"
     inkscape:current-layer="Layer_1" />
  <style
     id="style2">.st0{fill:#FFFFFF;}</style>
  <path
     class="st0"
     d="m 81.75,88.9 c -5.7,0 -10.2,5 -10.2,11.1 0,6.1 4.6,11.1 10.2,11.1 5.7,0 10.2,-5 10.2,-11.1 0.1,-6.1 -4.5,-11.1 -10.2,-11.1 z m 36.5,0 c -5.7,0 -10.2,5 -10.2,11.1 0,6.1 4.6,11.1 10.2,11.1 5.7,0 10.2,-5 10.2,-11.1 0,-6.1 -4.5,-11.1 -10.2,-11.1 z"
     id="path4"
     inkscape:connector-curvature="0"
     style="fill:#ffffff" />
  <path
     class="st0"
     d="M 167,0 H 33 C 21.7,0 12.5,9.2 12.5,20.6 v 135.2 c 0,11.4 9.2,20.6 20.5,20.6 h 113.4 l -5.3,-18.5 12.8,11.9 12.1,11.2 21.5,19 V 20.6 C 187.5,9.2 178.3,0 167,0 Z m -38.6,130.6 c 0,0 -3.6,-4.3 -6.6,-8.1 13.1,-3.7 18.1,-11.9 18.1,-11.9 -4.1,2.7 -8,4.6 -11.5,5.9 -5,2.1 -9.8,3.5 -14.5,4.3 -9.6,1.8 -18.4,1.3 -25.9,-0.1 -5.7,-1.1 -10.6,-2.7 -14.7,-4.3 -2.3,-0.9 -4.8,-2 -7.3,-3.4 -0.3,-0.2 -0.6,-0.3 -0.9,-0.5 -0.2,-0.1 -0.3,-0.2 -0.4,-0.3 -1.8,-1 -2.8,-1.7 -2.8,-1.7 0,0 4.8,8 17.5,11.8 -3,3.8 -6.7,8.3 -6.7,8.3 C 50.6,129.9 42.2,115.4 42.2,115.4 42.2,83.2 56.6,57.1 56.6,57.1 71,46.3 84.7,46.6 84.7,46.6 l 1,1.2 c -18,5.2 -26.3,13.1 -26.3,13.1 0,0 2.2,-1.2 5.9,-2.9 10.7,-4.7 19.2,-6 22.7,-6.3 0.6,-0.1 1.1,-0.2 1.7,-0.2 6.1,-0.8 13,-1 20.2,-0.2 9.5,1.1 19.7,3.9 30.1,9.6 0,0 -7.9,-7.5 -24.9,-12.7 l 1.4,-1.6 c 0,0 13.7,-0.3 28.1,10.5 0,0 14.4,26.1 14.4,58.3 0,0 -8.5,14.5 -30.6,15.2 z"
     id="path6"
     inkscape:connector-curvature="0"
     style="fill:#ffffff" />
</svg>
