<?xml version="1.0" encoding="UTF-8" standalone="no"?>
<svg
   xmlns:dc="http://purl.org/dc/elements/1.1/"
   xmlns:cc="http://creativecommons.org/ns#"
   xmlns:rdf="http://www.w3.org/1999/02/22-rdf-syntax-ns#"
   xmlns:svg="http://www.w3.org/2000/svg"
   xmlns="http://www.w3.org/2000/svg"
   xmlns:sodipodi="http://sodipodi.sourceforge.net/DTD/sodipodi-0.dtd"
   xmlns:inkscape="http://www.inkscape.org/namespaces/inkscape"
   viewBox="0 0 100 100"
   height="100"
   width="100"
   xml:space="preserve"
   id="svg2"
   version="1.1"
   sodipodi:docname="github.svg"
   inkscape:version="0.92.4 (5da689c313, 2019-01-14)"><sodipodi:namedview
     pagecolor="#ffffff"
     bordercolor="#666666"
     borderopacity="1"
     objecttolerance="10"
     gridtolerance="10"
     guidetolerance="10"
     inkscape:pageopacity="0"
     inkscape:pageshadow="2"
     inkscape:window-width="1920"
     inkscape:window-height="1057"
     id="namedview98"
     showgrid="false"
     inkscape:zoom="1.4160283"
     inkscape:cx="342.23388"
     inkscape:cy="89.520549"
     inkscape:window-x="-8"
     inkscape:window-y="-8"
     inkscape:window-maximized="1"
     inkscape:current-layer="g12" /><metadata
     id="metadata8"><rdf:RDF><cc:Work
         rdf:about=""><dc:format>image/svg+xml</dc:format><dc:type
           rdf:resource="http://purl.org/dc/dcmitype/StillImage" /><dc:title></dc:title></cc:Work></rdf:RDF></metadata><defs
     id="defs6" /><g
     transform="matrix(1.3333333,0,0,-1.3333333,0,100.00001)"
     id="g10"><g
       transform="scale(0.1)"
       id="g12"><path
         id="path106"
         style="fill:#ffffff;fill-opacity:1;fill-rule:evenodd;stroke:none;stroke-width:2.30209661"
         d="M 374.96548,740.74413 C 167.91492,740.74413 0,572.85224 0,365.73261 0,200.05074 107.43884,59.507742 256.45355,9.9205837 c 18.76209,-3.4531447 25.59931,8.1264003 25.59931,18.0714573 0,8.909114 -0.32229,32.482582 -0.50646,63.768073 C 177.23841,69.107485 155.23037,142.0379 155.23037,142.0379 c -17.05854,43.32546 -41.64493,54.85896 -41.64493,54.85896 -34.048006,23.25118 2.57835,22.79076 2.57835,22.79076 37.63928,-2.64741 57.43731,-38.6522 57.43731,-38.6522 33.44946,-57.29918 87.77894,-40.74711 109.14239,-31.14737 3.4071,24.21806 13.09893,40.74711 23.80368,50.11664 -83.26683,9.46162 -170.81556,41.64492 -170.81556,185.34179 0,40.93127 14.61831,74.42678 38.60616,100.62463 -3.86752,9.48464 -16.73624,47.63038 3.68335,99.24339 0,0 31.46966,10.08318 103.1109,-38.44502 29.90424,8.33359 61.99546,12.47737 93.8795,12.63851 31.86102,-0.16114 63.92922,-4.30492 93.8795,-12.63851 71.5952,48.5282 103.01881,38.44502 103.01881,38.44502 20.46564,-51.61301 7.59692,-89.75875 3.75242,-99.24339 24.03389,-26.19785 38.5371,-59.69336 38.5371,-100.62463 0,-144.0652 -87.68686,-175.76506 -171.20692,-185.04251 13.44424,-11.57955 25.43817,-34.46239 25.43817,-69.43123 0,-50.139668 -0.46042,-90.587504 -0.46042,-102.880699 0,-10.037141 6.76816,-21.7087698 25.78348,-18.0484364 148.8996,49.7022634 256.24636,190.1531754 256.24636,355.7890054 0,207.11963 -167.91492,375.01152 -375.03454,375.01152"
         inkscape:connector-curvature="0" /></g></g></svg>