<svg xmlns="http://www.w3.org/2000/svg" height="100" width="100"><path d="M49.995 1.234C22.39 1.234 0 23.62 0 51.236c0 22.09 14.325 40.83 34.194 47.441 2.501.46 3.413-1.083 3.413-2.41 0-1.187-.043-4.33-.067-8.502-13.908 3.02-16.843-6.703-16.843-6.703-2.274-5.777-5.552-7.315-5.552-7.315-4.54-3.1.344-3.039.344-3.039 5.018.353 7.658 5.154 7.658 5.154 4.46 7.64 11.704 5.433 14.552 4.153.454-3.23 1.747-5.433 3.174-6.682C29.771 72.07 18.098 67.78 18.098 48.62c0-5.457 1.949-9.923 5.147-13.416-.516-1.265-2.231-6.35.491-13.233 0 0 4.196-1.344 13.748 5.126 3.988-1.11 8.266-1.663 12.518-1.685 4.248.022 8.523.574 12.517 1.685 9.546-6.47 13.736-5.126 13.736-5.126 2.728 6.882 1.013 11.968.5 13.233 3.204 3.493 5.138 7.959 5.138 13.416 0 19.21-11.691 23.436-22.827 24.673 1.792 1.544 3.391 4.595 3.391 9.257 0 6.686-.061 12.079-.061 13.718 0 1.338.902 2.894 3.438 2.406C85.687 92.047 100 73.32 100 51.236 100 23.62 77.611 1.234 49.995 1.234" fill="#fff" fill-rule="evenodd" stroke-width="2.302"/></svg>