<svg xmlns="http://www.w3.org/2000/svg" viewBox="0 0 400 400"><path d="M125.65 362.625c150.94 0 233.534-125.17 233.534-233.533 0-3.522 0-7.043-.16-10.565C375.03 107.003 388.956 92.437 400 75.95c-14.726 6.563-30.572 10.885-47.219 12.966 16.967-10.084 29.932-26.25 36.175-45.459-15.847 9.444-33.454 16.167-52.181 19.848-15.046-16.006-36.335-25.93-59.864-25.93-45.298 0-82.113 36.815-82.113 82.113 0 6.402.8 12.645 2.08 18.727-68.187-3.361-128.69-36.174-169.187-85.794-7.043 12.165-11.044 26.25-11.044 41.296 0 28.492 14.565 53.622 36.494 68.348a83.02 83.02 0 01-37.135-10.244v1.12c0 39.696 28.332 72.99 65.787 80.512-6.883 1.921-14.086 2.882-21.609 2.882-5.282 0-10.404-.48-15.366-1.441 10.404 32.653 40.816 56.342 76.67 56.983-28.17 22.089-63.545 35.214-101.96 35.214-6.563 0-13.125-.32-19.528-1.12 36.174 23.049 79.392 36.654 125.65 36.654" fill="#fff"/></svg>